<svg xmlns="http://www.w3.org/2000/svg" version="1.1" xmlns:xlink="http://www.w3.org/1999/xlink" xmlns:svgjs="http://svgjs.dev/svgjs" width="1440" height="560" preserveAspectRatio="none" viewBox="0 0 1440 560">
    <g mask="url(&quot;#SvgjsMask1378&quot;)" fill="none">
        <path d="M218.62 533.87L310.42 586.87L310.42 692.87L218.62 745.87L126.82 692.87L126.82 586.87zM861.23 56.87L953.03 109.87L953.03 215.87L861.23 268.87L769.43 215.87L769.43 109.87zM769.43 533.87L861.23 586.87L861.23 692.87L769.43 745.87L677.63 692.87L677.63 586.87zM1044.83 374.87L1136.64 427.87L1136.64 533.87L1044.83 586.87L953.03 533.87L953.03 427.87zM1136.64 -102.13L1228.44 -49.13L1228.44 56.87L1136.64 109.87L1044.83 56.87L1044.83 -49.13zM1228.44 56.87L1320.24 109.87L1320.24 215.87L1228.44 268.87L1136.64 215.87L1136.64 109.87zM1136.64 533.87L1228.44 586.87L1228.44 692.87L1136.64 745.87L1044.83 692.87L1044.83 586.87zM1320.24 215.87L1412.04 268.87L1412.04 374.87L1320.24 427.87L1228.44 374.87L1228.44 268.87z" stroke="rgba(67, 67, 67, 0.92)" stroke-width="2"></path>
        <path d="M208.02 533.87 a10.6 10.6 0 1 0 21.2 0 a10.6 10.6 0 1 0 -21.2 0zM299.82 586.87 a10.6 10.6 0 1 0 21.2 0 a10.6 10.6 0 1 0 -21.2 0zM299.82 692.87 a10.6 10.6 0 1 0 21.2 0 a10.6 10.6 0 1 0 -21.2 0zM208.02 745.87 a10.6 10.6 0 1 0 21.2 0 a10.6 10.6 0 1 0 -21.2 0zM116.22 692.87 a10.6 10.6 0 1 0 21.2 0 a10.6 10.6 0 1 0 -21.2 0zM116.22 586.87 a10.6 10.6 0 1 0 21.2 0 a10.6 10.6 0 1 0 -21.2 0zM850.63 56.87 a10.6 10.6 0 1 0 21.2 0 a10.6 10.6 0 1 0 -21.2 0zM942.43 109.87 a10.6 10.6 0 1 0 21.2 0 a10.6 10.6 0 1 0 -21.2 0zM942.43 215.87 a10.6 10.6 0 1 0 21.2 0 a10.6 10.6 0 1 0 -21.2 0zM850.63 268.87 a10.6 10.6 0 1 0 21.2 0 a10.6 10.6 0 1 0 -21.2 0zM758.83 215.87 a10.6 10.6 0 1 0 21.2 0 a10.6 10.6 0 1 0 -21.2 0zM758.83 109.87 a10.6 10.6 0 1 0 21.2 0 a10.6 10.6 0 1 0 -21.2 0zM758.83 533.87 a10.6 10.6 0 1 0 21.2 0 a10.6 10.6 0 1 0 -21.2 0zM850.63 586.87 a10.6 10.6 0 1 0 21.2 0 a10.6 10.6 0 1 0 -21.2 0zM850.63 692.87 a10.6 10.6 0 1 0 21.2 0 a10.6 10.6 0 1 0 -21.2 0zM758.83 745.87 a10.6 10.6 0 1 0 21.2 0 a10.6 10.6 0 1 0 -21.2 0zM667.03 692.87 a10.6 10.6 0 1 0 21.2 0 a10.6 10.6 0 1 0 -21.2 0zM667.03 586.87 a10.6 10.6 0 1 0 21.2 0 a10.6 10.6 0 1 0 -21.2 0zM1034.23 374.87 a10.6 10.6 0 1 0 21.2 0 a10.6 10.6 0 1 0 -21.2 0zM1126.04 427.87 a10.6 10.6 0 1 0 21.2 0 a10.6 10.6 0 1 0 -21.2 0zM1126.04 533.87 a10.6 10.6 0 1 0 21.2 0 a10.6 10.6 0 1 0 -21.2 0zM1034.23 586.87 a10.6 10.6 0 1 0 21.2 0 a10.6 10.6 0 1 0 -21.2 0zM942.43 533.87 a10.6 10.6 0 1 0 21.2 0 a10.6 10.6 0 1 0 -21.2 0zM942.43 427.87 a10.6 10.6 0 1 0 21.2 0 a10.6 10.6 0 1 0 -21.2 0zM1126.04 -102.13 a10.6 10.6 0 1 0 21.2 0 a10.6 10.6 0 1 0 -21.2 0zM1217.84 -49.13 a10.6 10.6 0 1 0 21.2 0 a10.6 10.6 0 1 0 -21.2 0zM1217.84 56.87 a10.6 10.6 0 1 0 21.2 0 a10.6 10.6 0 1 0 -21.2 0zM1126.04 109.87 a10.6 10.6 0 1 0 21.2 0 a10.6 10.6 0 1 0 -21.2 0zM1034.23 56.87 a10.6 10.6 0 1 0 21.2 0 a10.6 10.6 0 1 0 -21.2 0zM1034.23 -49.13 a10.6 10.6 0 1 0 21.2 0 a10.6 10.6 0 1 0 -21.2 0zM1309.64 109.87 a10.6 10.6 0 1 0 21.2 0 a10.6 10.6 0 1 0 -21.2 0zM1309.64 215.87 a10.6 10.6 0 1 0 21.2 0 a10.6 10.6 0 1 0 -21.2 0zM1217.84 268.87 a10.6 10.6 0 1 0 21.2 0 a10.6 10.6 0 1 0 -21.2 0zM1126.04 215.87 a10.6 10.6 0 1 0 21.2 0 a10.6 10.6 0 1 0 -21.2 0zM1217.84 586.87 a10.6 10.6 0 1 0 21.2 0 a10.6 10.6 0 1 0 -21.2 0zM1217.84 692.87 a10.6 10.6 0 1 0 21.2 0 a10.6 10.6 0 1 0 -21.2 0zM1126.04 745.87 a10.6 10.6 0 1 0 21.2 0 a10.6 10.6 0 1 0 -21.2 0zM1034.23 692.87 a10.6 10.6 0 1 0 21.2 0 a10.6 10.6 0 1 0 -21.2 0zM1401.44 268.87 a10.6 10.6 0 1 0 21.2 0 a10.6 10.6 0 1 0 -21.2 0zM1401.44 374.87 a10.6 10.6 0 1 0 21.2 0 a10.6 10.6 0 1 0 -21.2 0zM1309.64 427.87 a10.6 10.6 0 1 0 21.2 0 a10.6 10.6 0 1 0 -21.2 0zM1217.84 374.87 a10.6 10.6 0 1 0 21.2 0 a10.6 10.6 0 1 0 -21.2 0z" fill="rgba(67, 67, 67, 0.92)"></path>
        <path d="M0 -38L32.91 -19L32.91 19L0 38L-32.91 19L-32.91 -19zM32.91 19L65.82 38L65.82 76L32.91 95L0 76L0 38zM0 76L32.91 95L32.91 133L0 152L-32.91 133L-32.91 95zM32.91 133L65.82 152L65.82 190L32.91 209L0 190L0 152zM0 190L32.91 209L32.91 247L0 266L-32.91 247L-32.91 209zM32.91 247L65.82 266L65.82 304L32.91 323L0 304L0 266zM0 304L32.91 323L32.91 361L0 380L-32.91 361L-32.91 323zM32.91 361L65.82 380L65.82 418L32.91 437L0 418L0 380zM0 418L32.91 437L32.91 475L0 494L-32.91 475L-32.91 437zM32.91 475L65.82 494L65.82 532L32.91 551L0 532L0 494zM0 532L32.91 551L32.91 589L0 608L-32.91 589L-32.91 551zM65.82 -38L98.73 -19L98.73 19L65.82 38L32.91 19L32.91 -19zM98.73 19L131.64 38L131.64 76L98.73 95L65.82 76L65.82 38zM65.82 76L98.73 95L98.73 133L65.82 152L32.91 133L32.91 95zM98.73 133L131.64 152L131.64 190L98.73 209L65.82 190L65.82 152zM65.82 190L98.73 209L98.73 247L65.82 266L32.91 247L32.91 209zM98.73 247L131.64 266L131.64 304L98.73 323L65.82 304L65.82 266zM65.82 304L98.73 323L98.73 361L65.82 380L32.91 361L32.91 323zM98.73 361L131.64 380L131.64 418L98.73 437L65.82 418L65.82 380zM65.82 418L98.73 437L98.73 475L65.82 494L32.91 475L32.91 437zM98.73 475L131.64 494L131.64 532L98.73 551L65.82 532L65.82 494zM65.82 532L98.73 551L98.73 589L65.82 608L32.91 589L32.91 551zM131.64 -38L164.55 -19L164.55 19L131.64 38L98.73 19L98.73 -19zM164.55 19L197.46 38L197.46 76L164.55 95L131.64 76L131.64 38zM131.64 76L164.55 95L164.55 133L131.64 152L98.73 133L98.73 95zM164.55 133L197.46 152L197.46 190L164.55 209L131.64 190L131.64 152zM131.64 190L164.55 209L164.55 247L131.64 266L98.73 247L98.73 209zM164.55 247L197.46 266L197.46 304L164.55 323L131.64 304L131.64 266zM131.64 304L164.55 323L164.55 361L131.64 380L98.73 361L98.73 323zM164.55 361L197.46 380L197.46 418L164.55 437L131.64 418L131.64 380zM131.64 418L164.55 437L164.55 475L131.64 494L98.73 475L98.73 437zM164.55 475L197.46 494L197.46 532L164.55 551L131.64 532L131.64 494zM131.64 532L164.55 551L164.55 589L131.64 608L98.73 589L98.73 551zM197.46 -38L230.37 -19L230.37 19L197.46 38L164.55 19L164.55 -19zM230.37 19L263.28 38L263.28 76L230.37 95L197.46 76L197.46 38zM197.46 76L230.37 95L230.37 133L197.46 152L164.55 133L164.55 95zM230.37 133L263.28 152L263.28 190L230.37 209L197.46 190L197.46 152zM197.46 190L230.37 209L230.37 247L197.46 266L164.55 247L164.55 209zM230.37 247L263.28 266L263.28 304L230.37 323L197.46 304L197.46 266zM197.46 304L230.37 323L230.37 361L197.46 380L164.55 361L164.55 323zM230.37 361L263.28 380L263.28 418L230.37 437L197.46 418L197.46 380zM197.46 418L230.37 437L230.37 475L197.46 494L164.55 475L164.55 437zM230.37 475L263.28 494L263.28 532L230.37 551L197.46 532L197.46 494zM197.46 532L230.37 551L230.37 589L197.46 608L164.55 589L164.55 551zM263.28 -38L296.19 -19L296.19 19L263.28 38L230.37 19L230.37 -19zM296.19 19L329.1 38L329.1 76L296.19 95L263.28 76L263.28 38zM263.28 76L296.19 95L296.19 133L263.28 152L230.37 133L230.37 95zM296.19 133L329.1 152L329.1 190L296.19 209L263.28 190L263.28 152zM263.28 190L296.19 209L296.19 247L263.28 266L230.37 247L230.37 209zM296.19 247L329.1 266L329.1 304L296.19 323L263.28 304L263.28 266zM263.28 304L296.19 323L296.19 361L263.28 380L230.37 361L230.37 323zM296.19 361L329.1 380L329.1 418L296.19 437L263.28 418L263.28 380zM263.28 418L296.19 437L296.19 475L263.28 494L230.37 475L230.37 437zM296.19 475L329.1 494L329.1 532L296.19 551L263.28 532L263.28 494zM263.28 532L296.19 551L296.19 589L263.28 608L230.37 589L230.37 551zM329.1 -38L362.01 -19L362.01 19L329.1 38L296.19 19L296.19 -19zM362.01 19L394.92 38L394.92 76L362.01 95L329.1 76L329.1 38zM329.1 76L362.01 95L362.01 133L329.1 152L296.19 133L296.19 95zM362.01 133L394.92 152L394.92 190L362.01 209L329.1 190L329.1 152zM329.1 190L362.01 209L362.01 247L329.1 266L296.19 247L296.19 209zM362.01 247L394.92 266L394.92 304L362.01 323L329.1 304L329.1 266zM329.1 304L362.01 323L362.01 361L329.1 380L296.19 361L296.19 323zM362.01 361L394.92 380L394.92 418L362.01 437L329.1 418L329.1 380zM329.1 418L362.01 437L362.01 475L329.1 494L296.19 475L296.19 437zM362.01 475L394.92 494L394.92 532L362.01 551L329.1 532L329.1 494zM329.1 532L362.01 551L362.01 589L329.1 608L296.19 589L296.19 551zM394.92 -38L427.83 -19L427.83 19L394.92 38L362.01 19L362.01 -19zM427.83 19L460.74 38L460.74 76L427.83 95L394.92 76L394.92 38zM394.92 76L427.83 95L427.83 133L394.92 152L362.01 133L362.01 95zM427.83 133L460.74 152L460.74 190L427.83 209L394.92 190L394.92 152zM394.92 190L427.83 209L427.83 247L394.92 266L362.01 247L362.01 209zM427.83 247L460.74 266L460.74 304L427.83 323L394.92 304L394.92 266zM394.92 304L427.83 323L427.83 361L394.92 380L362.01 361L362.01 323zM427.83 361L460.74 380L460.74 418L427.83 437L394.92 418L394.92 380zM394.92 418L427.83 437L427.83 475L394.92 494L362.01 475L362.01 437zM427.83 475L460.74 494L460.74 532L427.83 551L394.92 532L394.92 494zM394.92 532L427.83 551L427.83 589L394.92 608L362.01 589L362.01 551zM460.74 -38L493.65 -19L493.65 19L460.74 38L427.83 19L427.83 -19zM493.65 19L526.56 38L526.56 76L493.65 95L460.74 76L460.74 38zM460.74 76L493.65 95L493.65 133L460.74 152L427.83 133L427.83 95zM493.65 133L526.56 152L526.56 190L493.65 209L460.74 190L460.74 152zM460.74 190L493.65 209L493.65 247L460.74 266L427.83 247L427.83 209zM493.65 247L526.56 266L526.56 304L493.65 323L460.74 304L460.74 266zM460.74 304L493.65 323L493.65 361L460.74 380L427.83 361L427.83 323zM493.65 361L526.56 380L526.56 418L493.65 437L460.74 418L460.74 380zM460.74 418L493.65 437L493.65 475L460.74 494L427.83 475L427.83 437zM493.65 475L526.56 494L526.56 532L493.65 551L460.74 532L460.74 494zM460.74 532L493.65 551L493.65 589L460.74 608L427.83 589L427.83 551zM526.56 -38L559.47 -19L559.47 19L526.56 38L493.65 19L493.65 -19zM559.47 19L592.38 38L592.38 76L559.47 95L526.56 76L526.56 38zM526.56 76L559.47 95L559.47 133L526.56 152L493.65 133L493.65 95zM559.47 133L592.38 152L592.38 190L559.47 209L526.56 190L526.56 152zM526.56 190L559.47 209L559.47 247L526.56 266L493.65 247L493.65 209zM559.47 247L592.38 266L592.38 304L559.47 323L526.56 304L526.56 266zM526.56 304L559.47 323L559.47 361L526.56 380L493.65 361L493.65 323zM559.47 361L592.38 380L592.38 418L559.47 437L526.56 418L526.56 380zM526.56 418L559.47 437L559.47 475L526.56 494L493.65 475L493.65 437zM559.47 475L592.38 494L592.38 532L559.47 551L526.56 532L526.56 494zM526.56 532L559.47 551L559.47 589L526.56 608L493.65 589L493.65 551zM592.38 -38L625.29 -19L625.29 19L592.38 38L559.47 19L559.47 -19zM625.29 19L658.2 38L658.2 76L625.29 95L592.38 76L592.38 38zM592.38 76L625.29 95L625.29 133L592.38 152L559.47 133L559.47 95zM625.29 133L658.2 152L658.2 190L625.29 209L592.38 190L592.38 152zM592.38 190L625.29 209L625.29 247L592.38 266L559.47 247L559.47 209zM625.29 247L658.2 266L658.2 304L625.29 323L592.38 304L592.38 266zM592.38 304L625.29 323L625.29 361L592.38 380L559.47 361L559.47 323zM625.29 361L658.2 380L658.2 418L625.29 437L592.38 418L592.38 380zM592.38 418L625.29 437L625.29 475L592.38 494L559.47 475L559.47 437zM625.29 475L658.2 494L658.2 532L625.29 551L592.38 532L592.38 494zM592.38 532L625.29 551L625.29 589L592.38 608L559.47 589L559.47 551zM658.2 -38L691.11 -19L691.11 19L658.2 38L625.29 19L625.29 -19zM691.11 19L724.02 38L724.02 76L691.11 95L658.2 76L658.2 38zM658.2 76L691.11 95L691.11 133L658.2 152L625.29 133L625.29 95zM691.11 133L724.02 152L724.02 190L691.11 209L658.2 190L658.2 152zM658.2 190L691.11 209L691.11 247L658.2 266L625.29 247L625.29 209zM691.11 247L724.02 266L724.02 304L691.11 323L658.2 304L658.2 266zM658.2 304L691.11 323L691.11 361L658.2 380L625.29 361L625.29 323zM691.11 361L724.02 380L724.02 418L691.11 437L658.2 418L658.2 380zM658.2 418L691.11 437L691.11 475L658.2 494L625.29 475L625.29 437zM691.11 475L724.02 494L724.02 532L691.11 551L658.2 532L658.2 494zM658.2 532L691.11 551L691.11 589L658.2 608L625.29 589L625.29 551zM724.02 -38L756.93 -19L756.93 19L724.02 38L691.11 19L691.11 -19zM756.93 19L789.84 38L789.84 76L756.93 95L724.02 76L724.02 38zM724.02 76L756.93 95L756.93 133L724.02 152L691.11 133L691.11 95zM756.93 133L789.84 152L789.84 190L756.93 209L724.02 190L724.02 152zM724.02 190L756.93 209L756.93 247L724.02 266L691.11 247L691.11 209zM756.93 247L789.84 266L789.84 304L756.93 323L724.02 304L724.02 266zM724.02 304L756.93 323L756.93 361L724.02 380L691.11 361L691.11 323zM756.93 361L789.84 380L789.84 418L756.93 437L724.02 418L724.02 380zM724.02 418L756.93 437L756.93 475L724.02 494L691.11 475L691.11 437zM756.93 475L789.84 494L789.84 532L756.93 551L724.02 532L724.02 494zM724.02 532L756.93 551L756.93 589L724.02 608L691.11 589L691.11 551zM789.84 -38L822.75 -19L822.75 19L789.84 38L756.93 19L756.93 -19zM822.75 19L855.66 38L855.66 76L822.75 95L789.84 76L789.84 38zM789.84 76L822.75 95L822.75 133L789.84 152L756.93 133L756.93 95zM822.75 133L855.66 152L855.66 190L822.75 209L789.84 190L789.84 152zM789.84 190L822.75 209L822.75 247L789.84 266L756.93 247L756.93 209zM822.75 247L855.66 266L855.66 304L822.75 323L789.84 304L789.84 266zM789.84 304L822.75 323L822.75 361L789.84 380L756.93 361L756.93 323zM822.75 361L855.66 380L855.66 418L822.75 437L789.84 418L789.84 380zM789.84 418L822.75 437L822.75 475L789.84 494L756.93 475L756.93 437zM822.75 475L855.66 494L855.66 532L822.75 551L789.84 532L789.84 494zM789.84 532L822.75 551L822.75 589L789.84 608L756.93 589L756.93 551zM855.66 -38L888.57 -19L888.57 19L855.66 38L822.75 19L822.75 -19zM888.57 19L921.48 38L921.48 76L888.57 95L855.66 76L855.66 38zM855.66 76L888.57 95L888.57 133L855.66 152L822.75 133L822.75 95zM888.57 133L921.48 152L921.48 190L888.57 209L855.66 190L855.66 152zM855.66 190L888.57 209L888.57 247L855.66 266L822.75 247L822.75 209zM888.57 247L921.48 266L921.48 304L888.57 323L855.66 304L855.66 266zM855.66 304L888.57 323L888.57 361L855.66 380L822.75 361L822.75 323zM888.57 361L921.48 380L921.48 418L888.57 437L855.66 418L855.66 380zM855.66 418L888.57 437L888.57 475L855.66 494L822.75 475L822.75 437zM888.57 475L921.48 494L921.48 532L888.57 551L855.66 532L855.66 494zM855.66 532L888.57 551L888.57 589L855.66 608L822.75 589L822.75 551zM921.48 -38L954.39 -19L954.39 19L921.48 38L888.57 19L888.57 -19zM954.39 19L987.3 38L987.3 76L954.39 95L921.48 76L921.48 38zM921.48 76L954.39 95L954.39 133L921.48 152L888.57 133L888.57 95zM954.39 133L987.3 152L987.3 190L954.39 209L921.48 190L921.48 152zM921.48 190L954.39 209L954.39 247L921.48 266L888.57 247L888.57 209zM954.39 247L987.3 266L987.3 304L954.39 323L921.48 304L921.48 266zM921.48 304L954.39 323L954.39 361L921.48 380L888.57 361L888.57 323zM954.39 361L987.3 380L987.3 418L954.39 437L921.48 418L921.48 380zM921.48 418L954.39 437L954.39 475L921.48 494L888.57 475L888.57 437zM954.39 475L987.3 494L987.3 532L954.39 551L921.48 532L921.48 494zM921.48 532L954.39 551L954.39 589L921.48 608L888.57 589L888.57 551zM987.3 -38L1020.21 -19L1020.21 19L987.3 38L954.39 19L954.39 -19zM1020.21 19L1053.12 38L1053.12 76L1020.21 95L987.3 76L987.3 38zM987.3 76L1020.21 95L1020.21 133L987.3 152L954.39 133L954.39 95zM1020.21 133L1053.12 152L1053.12 190L1020.21 209L987.3 190L987.3 152zM987.3 190L1020.21 209L1020.21 247L987.3 266L954.39 247L954.39 209zM1020.21 247L1053.12 266L1053.12 304L1020.21 323L987.3 304L987.3 266zM987.3 304L1020.21 323L1020.21 361L987.3 380L954.39 361L954.39 323zM1020.21 361L1053.12 380L1053.12 418L1020.21 437L987.3 418L987.3 380zM987.3 418L1020.21 437L1020.21 475L987.3 494L954.39 475L954.39 437zM1020.21 475L1053.12 494L1053.12 532L1020.21 551L987.3 532L987.3 494zM987.3 532L1020.21 551L1020.21 589L987.3 608L954.39 589L954.39 551zM1053.12 -38L1086.03 -19L1086.03 19L1053.12 38L1020.21 19L1020.21 -19zM1086.03 19L1118.94 38L1118.94 76L1086.03 95L1053.12 76L1053.12 38zM1053.12 76L1086.03 95L1086.03 133L1053.12 152L1020.21 133L1020.21 95zM1086.03 133L1118.94 152L1118.94 190L1086.03 209L1053.12 190L1053.12 152zM1053.12 190L1086.03 209L1086.03 247L1053.12 266L1020.21 247L1020.21 209zM1086.03 247L1118.94 266L1118.94 304L1086.03 323L1053.12 304L1053.12 266zM1053.12 304L1086.03 323L1086.03 361L1053.12 380L1020.21 361L1020.21 323zM1086.03 361L1118.94 380L1118.94 418L1086.03 437L1053.12 418L1053.12 380zM1053.12 418L1086.03 437L1086.03 475L1053.12 494L1020.21 475L1020.21 437zM1086.03 475L1118.94 494L1118.94 532L1086.03 551L1053.12 532L1053.12 494zM1053.12 532L1086.03 551L1086.03 589L1053.12 608L1020.21 589L1020.21 551zM1118.94 -38L1151.85 -19L1151.85 19L1118.94 38L1086.03 19L1086.03 -19zM1151.85 19L1184.76 38L1184.76 76L1151.85 95L1118.94 76L1118.94 38zM1118.94 76L1151.85 95L1151.85 133L1118.94 152L1086.03 133L1086.03 95zM1151.85 133L1184.76 152L1184.76 190L1151.85 209L1118.94 190L1118.94 152zM1118.94 190L1151.85 209L1151.85 247L1118.94 266L1086.03 247L1086.03 209zM1151.85 247L1184.76 266L1184.76 304L1151.85 323L1118.94 304L1118.94 266zM1118.94 304L1151.85 323L1151.85 361L1118.94 380L1086.03 361L1086.03 323zM1151.85 361L1184.76 380L1184.76 418L1151.85 437L1118.94 418L1118.94 380zM1118.94 418L1151.85 437L1151.85 475L1118.94 494L1086.03 475L1086.03 437zM1151.85 475L1184.76 494L1184.76 532L1151.85 551L1118.94 532L1118.94 494zM1118.94 532L1151.85 551L1151.85 589L1118.94 608L1086.03 589L1086.03 551zM1184.76 -38L1217.67 -19L1217.67 19L1184.76 38L1151.85 19L1151.85 -19zM1217.67 19L1250.58 38L1250.58 76L1217.67 95L1184.76 76L1184.76 38zM1184.76 76L1217.67 95L1217.67 133L1184.76 152L1151.85 133L1151.85 95zM1217.67 133L1250.58 152L1250.58 190L1217.67 209L1184.76 190L1184.76 152zM1184.76 190L1217.67 209L1217.67 247L1184.76 266L1151.85 247L1151.85 209zM1217.67 247L1250.58 266L1250.58 304L1217.67 323L1184.76 304L1184.76 266zM1184.76 304L1217.67 323L1217.67 361L1184.76 380L1151.85 361L1151.85 323zM1217.67 361L1250.58 380L1250.58 418L1217.67 437L1184.76 418L1184.76 380zM1184.76 418L1217.67 437L1217.67 475L1184.76 494L1151.85 475L1151.85 437zM1217.67 475L1250.58 494L1250.58 532L1217.67 551L1184.76 532L1184.76 494zM1184.76 532L1217.67 551L1217.67 589L1184.76 608L1151.85 589L1151.85 551zM1250.58 -38L1283.49 -19L1283.49 19L1250.58 38L1217.67 19L1217.67 -19zM1283.49 19L1316.4 38L1316.4 76L1283.49 95L1250.58 76L1250.58 38zM1250.58 76L1283.49 95L1283.49 133L1250.58 152L1217.67 133L1217.67 95zM1283.49 133L1316.4 152L1316.4 190L1283.49 209L1250.58 190L1250.58 152zM1250.58 190L1283.49 209L1283.49 247L1250.58 266L1217.67 247L1217.67 209zM1283.49 247L1316.4 266L1316.4 304L1283.49 323L1250.58 304L1250.58 266zM1250.58 304L1283.49 323L1283.49 361L1250.58 380L1217.67 361L1217.67 323zM1283.49 361L1316.4 380L1316.4 418L1283.49 437L1250.58 418L1250.58 380zM1250.58 418L1283.49 437L1283.49 475L1250.58 494L1217.67 475L1217.67 437zM1283.49 475L1316.4 494L1316.4 532L1283.49 551L1250.58 532L1250.58 494zM1250.58 532L1283.49 551L1283.49 589L1250.58 608L1217.67 589L1217.67 551zM1316.4 -38L1349.31 -19L1349.31 19L1316.4 38L1283.49 19L1283.49 -19zM1349.31 19L1382.22 38L1382.22 76L1349.31 95L1316.4 76L1316.4 38zM1316.4 76L1349.31 95L1349.31 133L1316.4 152L1283.49 133L1283.49 95zM1349.31 133L1382.22 152L1382.22 190L1349.31 209L1316.4 190L1316.4 152zM1316.4 190L1349.31 209L1349.31 247L1316.4 266L1283.49 247L1283.49 209zM1349.31 247L1382.22 266L1382.22 304L1349.31 323L1316.4 304L1316.4 266zM1316.4 304L1349.31 323L1349.31 361L1316.4 380L1283.49 361L1283.49 323zM1349.31 361L1382.22 380L1382.22 418L1349.31 437L1316.4 418L1316.4 380zM1316.4 418L1349.31 437L1349.31 475L1316.4 494L1283.49 475L1283.49 437zM1349.31 475L1382.22 494L1382.22 532L1349.31 551L1316.4 532L1316.4 494zM1316.4 532L1349.31 551L1349.31 589L1316.4 608L1283.49 589L1283.49 551zM1382.22 -38L1415.13 -19L1415.13 19L1382.22 38L1349.31 19L1349.31 -19zM1415.13 19L1448.04 38L1448.04 76L1415.13 95L1382.22 76L1382.22 38zM1382.22 76L1415.13 95L1415.13 133L1382.22 152L1349.31 133L1349.31 95zM1415.13 133L1448.04 152L1448.04 190L1415.13 209L1382.22 190L1382.22 152zM1382.22 190L1415.13 209L1415.13 247L1382.22 266L1349.31 247L1349.31 209zM1415.13 247L1448.04 266L1448.04 304L1415.13 323L1382.22 304L1382.22 266zM1382.22 304L1415.13 323L1415.13 361L1382.22 380L1349.31 361L1349.31 323zM1415.13 361L1448.04 380L1448.04 418L1415.13 437L1382.22 418L1382.22 380zM1382.22 418L1415.13 437L1415.13 475L1382.22 494L1349.31 475L1349.31 437zM1415.13 475L1448.04 494L1448.04 532L1415.13 551L1382.22 532L1382.22 494zM1382.22 532L1415.13 551L1415.13 589L1382.22 608L1349.31 589L1349.31 551z" stroke="rgba(140, 201, 10, 0.17)" stroke-width="2"></path>
    </g>
    <defs>
        <mask id="SvgjsMask1378">
            <rect width="1440" height="560" fill="#ffffff"></rect>
        </mask>
    </defs>
</svg>