<?xml version="1.0" encoding="utf-8"?>

<svg version="1.0" id="svgRoot" xmlns:svg="http://www.w3.org/2000/svg"
	 xmlns="http://www.w3.org/2000/svg" xmlns:xlink="http://www.w3.org/1999/xlink" x="0px" y="0px" viewBox="0 0 664.38 162.97"
	 style="enable-background:new 0 0 664.38 162.97;" xml:space="preserve">
<style type="text/css">
	.st0{fill:none;stroke:#1B1918;stroke-width:14.1732;stroke-linecap:round;}
	.st1{fill:none;stroke:#B1C900;stroke-width:14.1732;stroke-linecap:round;stroke-linejoin:round;}
	.st2{fill-rule:evenodd;clip-rule:evenodd;fill:#B1C900;}
	.st3{fill:none;stroke:#B1C900;stroke-width:14.1732;stroke-linecap:round;}
	.st4{fill-rule:evenodd;clip-rule:evenodd;fill:#1B1918;}
</style>
<path class="st0" d="M155.29,117.94v29.45c0,4.68-3.83,8.5-8.5,8.5h-29.15"/>
<path class="st0" d="M116.96,7.09h29.82c4.68,0,8.5,3.83,8.5,8.5v29.3"/>
<path class="st0" d="M7.09,44.89v-29.3c0-4.68,3.83-8.5,8.5-8.5h29.07"/>
<path class="st1" d="M68.89,155.89h-2.27c-24.8,0-46.18-15.37-55.1-37.05"/>
<path class="st2" d="M50.28,54.57c6.38,0,11.64,4.8,12.37,10.99c0.21,1.78-0.19,2.36-2.2,2.36c-7.68,0-12.5,0-20.17,0
	c-1.18,0-2.66,0.11-2.34-2.48C38.71,59.31,43.94,54.57,50.28,54.57z"/>
<path class="st2" d="M118.08,54.57c6.38,0,11.64,4.8,12.37,10.99c0.21,1.78-0.19,2.36-2.2,2.36c-7.68,0-12.5,0-20.17,0
	c-1.18,0-2.66,0.11-2.34-2.48C106.5,59.31,111.74,54.57,118.08,54.57z"/>
<path class="st3" d="M30.15,55.18c4.75-6.87,12.69-11.38,21.68-11.38"/>
<path class="st3" d="M119.05,43.81c-8.99,0-16.91,4.52-21.68,11.38c-4,5.75-2.91,16.47-2.91,24.6v31.62c0,4.68-3.83,8.5-8.5,8.5
	H70.53"/>
<path class="st2" d="M595.72,71.18c1.99,1.89,17.99,31.13,20.78,36.07c2.95,5.23,7.16,13.99,16.03,10.74
	c7.25-2.65,5.38-14.59,5.38-23.11c0-9.35,0-18.7,0-28.06c0-7.39,2.48-21.59-5.51-22.99c-11.05-1.95-9.08,10.62-9.08,18.68
	c0,9.17,0.48,19.75-0.14,28.74c-2.55-2.43-17.3-30.42-20.73-36.11c-3.35-5.56-6.53-14.31-16.22-10.81
	c-7.22,2.61-5.23,14.47-5.23,23.22l-0.02,42.46c0.09,4.68,1.27,7.7,5.66,8.42c11.06,1.81,8.94-10.56,8.94-18.51
	C595.59,90.75,595.1,80.18,595.72,71.18z M533.99,58.64c19.73-2.13,23.05,4.57,23.05,21.14c0,18.6-1.78,25.93-23.71,23.71
	C533.27,100.74,532.42,61.49,533.99,58.64z M521.2,45.16c-5.05,2.8-3.88,6.01-3.87,12.32l0,48.92c-0.02,5.55-0.5,9.99,4.59,11.23
	c3.12,0.76,12.55,0.32,16.31,0.32c10.32,0,19.24-0.84,25.96-6.43c5.86-4.88,8.37-12.84,8.88-23.15
	c0.91-18.47,0.88-39.02-21.13-43.21C547.19,44.24,524.61,43.27,521.2,45.16z M653.32,44.31c-6.59,2.54-5.02,9.37-5.02,17.48
	l-0.01,45.33c-0.02,7.15,2.87,13.68,10.96,10.96c6.36-2.13,5.01-9.96,5.01-17.44l0.01-45.32C664.28,48.12,661.59,41.12,653.32,44.31
	z"/>
<path class="st4" d="M219.72,43.62c-13.15,2.3-20.47,10.53-22.28,24.02c-1.69,12.64-1.26,31.73,4.97,40.78
	c5.87,8.53,19.38,13.79,33.22,9.03c17.57-6.04,17.36-25.02,4.27-21.64c-6.25,1.61-4.4,8.68-13.89,9.15
	c-15.85,0.79-13.29-20.55-12.79-33.09c0.69-17.08,14-16,18.4-12.81c2.83,2.05,3.46,4.3,5.6,5.93c5.28,4.03,13.14,0.82,12.18-6.53
	C248.03,47.97,232.82,41.33,219.72,43.62z M480.7,96.36c0.36,5.16-0.13,8.59-4.03,10.36c-11.15,5.08-17.93-6.41-9.52-9.6
	C470.6,95.82,476.78,96.18,480.7,96.36z M480.62,86.14c-8.24,0-16.34-0.65-23.24,2.72c-10.95,5.35-13.56,26.58,5.95,29.83
	c10.59,1.76,14.17-0.81,21.2-4.63c3.26,8.82,19.83,4.17,12.83-7.8c-6.91-11.83,6.26-32.46-14.45-40.2
	c-8.72-3.26-33.46-3.2-30.68,9.06c1.61,7.11,9.27,3.06,14.75,2.39C474.27,76.61,481.23,78.32,480.62,86.14z M342.5,86.14h-18.04
	c-0.45-6.42,2.5-10.04,8.74-10.15C339.42,75.88,342.85,79.88,342.5,86.14z M354.41,103.33c-8.75-2.36-9.38,2.81-17.58,3.32
	c-7.66,0.48-12.25-3.03-12.52-10.33c7.97-0.2,21.96,0.88,28.99-0.12c8.21-1.17,3.31-16.84,0.75-21.43
	c-8.46-15.17-48.15-18.96-44.85,21.18c0.82,9.92,4.03,15.42,10.01,19.4C330.96,123.16,363.45,117.84,354.41,103.33z M378.88,69.97
	c-1.23-4.41-6.76-6.79-11.24-3.98c-4.29,2.69-3.34,9.42-3.34,15.23c0,6.71-1.46,31.06,1.67,34.85c2.96,3.59,9.56,3.4,12.2-0.68
	c3.78-5.84-0.74-27.38,2.55-34.1c2.23-4.55,8.95-5.73,12.83-1.44c5.24,5.79,0.16,25.68,2.83,33.9c1.39,4.29,7.32,6.73,11.64,3.44
	c4.2-3.2,2.99-9.78,2.99-15.83c0-14.16,3.45-37.26-18.1-37.03C383.2,64.44,382.91,68.11,378.88,69.97z M420.86,65.33
	c-4.17,0.6-7.12,1.21-7.14,5.81c-0.02,4.61,2.94,5.3,7.14,5.87c0.78,12.81-3.41,34.05,6.66,39.4c13.33,7.09,23.9-2.2,17.6-8.98
	c-5.38-5.79-11.94,6.85-8.94-30.5c5.34-0.28,10.66,0.41,10.66-5.8c0-6.38-5.35-5.24-10.66-5.8c-0.61-7.65,1.25-15.98-7.34-16.23
	C419.67,48.85,421.32,57.45,420.86,65.33z M287.16,113.61L287.16,113.61z M287.32,113.94c1.23,4.41,6.76,6.79,11.24,3.98
	c4.29-2.69,3.34-9.42,3.34-15.23c0-6.71,1.46-31.06-1.67-34.85c-2.96-3.59-9.56-3.4-12.2,0.68c-3.78,5.84,0.74,27.38-2.55,34.1
	c-2.23,4.55-8.95,5.73-12.83,1.44c-5.24-5.79-0.16-25.68-2.83-33.9c-1.39-4.29-7.32-6.73-11.64-3.44c-4.2,3.2-2.99,9.78-2.99,15.83
	c0,14.16-3.45,37.26,18.1,37.03C283,119.47,283.28,115.8,287.32,113.94z"/>
</svg>
